<svg xmlns="http://www.w3.org/2000/svg" xmlns:xlink="http://www.w3.org/1999/xlink" width="120px" height="120px" viewBox="0 0 120 120" version="1.1">
    <title>Group 3</title>
    <g id="Symbols" stroke="none" stroke-width="1" fill="none" fill-rule="evenodd">
        <g id="Global/Navigation.Desktop" transform="translate(-45, -24)">
            <g id="Group-3" transform="translate(45, 24)">
                <path d="M60.0016849,0 C26.8652064,0 0,26.8646406 0,60.0004212 C0,93.1362018 26.8652064,120 60.0016849,120 C93.1432182,120 120,93.1362018 120,60.0004212 C120,26.8646406 93.1432182,0 60.0016849,0" id="Combined-Shape" fill="#281F2E"></path>
                <path d="M46.1643877,53.1599744 C47.5334469,53.1599744 48.7225437,53.4759745 49.7140183,54.1143746 C50.9005923,54.8567748 51.6355786,55.847975 51.9231819,57.0863752 C51.9231819,57.0863752 52.0888481,57.5663753 51.6103502,57.9039754 L51.0326207,58.2039754 C50.9401167,58.2519754 50.8131339,58.2815754 50.6634457,58.2815754 C50.2379273,58.2815754 49.9873256,58.0911754 49.8864121,57.7103753 C49.4835993,55.998375 48.2322725,55.1487748 46.1332727,55.1487748 C44.4909064,55.1487748 43.2404205,55.6255749 42.3952704,56.5823751 C41.5475974,57.5311753 41.1161924,58.8015755 41.1161924,60.3799758 C41.1161924,61.8383761 41.5215281,62.9791763 42.324631,63.8207765 C43.1613717,64.7079767 44.3386952,65.1559768 45.8456694,65.1559768 C46.8430307,65.1559768 47.7108863,64.9359767 48.455123,64.4991766 C49.2750448,64.0247765 49.7821349,63.3519764 49.9738704,62.4839762 C50.1454233,61.9527761 50.4212534,61.6903761 50.8047245,61.6903761 C50.9174112,61.6903761 51.0216884,61.7311761 51.1486712,61.7735761 L51.7482652,61.9903761 C52.2435821,62.2103762 52.1258497,62.6983763 52.1258497,62.6983763 C51.8382464,64.1183766 51.0443939,65.2519768 49.7451333,66.1071769 L49.5988088,66.198377 C48.5451042,66.8119771 47.2887317,67.0879771 45.8776253,67.0879771 C43.7761028,67.0879771 42.1051442,66.455977 40.8706364,65.1935768 C39.6428561,63.9311765 39.0289659,62.3287762 39.0289659,60.3799758 C39.0289659,58.2519754 39.659675,56.5207751 40.9328663,55.1751748 C42.2035349,53.8295746 43.9442919,53.1599744 46.1643877,53.1599744 Z M38.5617367,53.2098944 C39.0461212,53.2098944 39.2799041,53.4586945 39.2799041,53.9490946 L39.2802063,54.6170572 C39.2774863,54.6935947 39.2557269,54.8624948 39.1251701,54.9890948 C38.9275479,55.1762948 38.6744234,55.1762948 38.5617367,55.1762948 C37.1926776,55.1762948 36.1440186,55.811495 35.4435111,57.0874952 C34.82878,58.1754954 34.5243578,59.6202957 34.5243578,61.418696 L34.5243578,66.1058969 C34.5243578,66.293097 34.4486727,66.457097 34.2930978,66.609097 C34.1383638,66.7674971 33.9693338,66.8426971 33.780962,66.8426971 L33.3184421,66.8426971 C32.8231252,66.8426971 32.5750463,66.604297 32.5750463,66.1058969 L32.5750463,54.2466946 C32.5750463,54.0642946 32.6507314,53.8954946 32.8029425,53.7314945 C32.9610403,53.5714945 33.1275475,53.4850945 33.3184421,53.4850945 L33.780962,53.4850945 C33.9693338,53.4850945 34.1383638,53.5714945 34.2930978,53.7314945 C34.4486727,53.8954946 34.5243578,54.0642946 34.5243578,54.2466946 L34.5243578,54.9058948 L34.7219799,54.7154947 C35.7723208,53.7130945 37.0547625,53.2098944 38.5617367,53.2098944 Z M27.8035221,63.7325365 C26.9247341,64.6789367 25.7019995,65.1549368 24.138682,65.1549368 C22.5913424,65.1549368 21.3887905,64.6917367 20.5411175,63.7645365 C19.6926036,62.8373363 19.2645624,61.6261361 19.2645624,60.1357358 C19.2645624,58.6085355 19.6926036,57.3989353 20.5411175,56.4965351 C21.3887905,55.5989349 22.5913424,55.1485348 24.138682,55.1485348 C25.7213412,55.1485348 26.9356664,55.5989349 27.7782937,56.4965351 C28.6175572,57.3989353 29.037189,58.6085355 29.037189,60.1357358 C29.037189,61.6453361 28.6259667,62.8405363 27.8035221,63.7325365 M24.1664332,53.1597344 C22.0674335,53.1597344 20.3628371,53.8085346 19.0787135,55.1077348 C17.7912261,56.4077351 17.1428571,58.0853354 17.1428571,60.1357358 C17.1428571,62.2101362 17.7575882,63.8693365 18.9769591,65.1261368 C20.2594008,66.434137 21.96652,67.0877371 24.1100898,67.0877371 C26.2738424,67.0877371 27.9725521,66.452537 29.237334,65.1821368 C30.4970702,63.9069365 31.1311431,62.2285362 31.1311431,60.1357358 C31.1311431,58.0669354 30.5054797,56.4021351 29.268449,55.1485348 C27.9473237,53.8213346 26.2452502,53.1597344 24.1664332,53.1597344 M63.6331785,54.0040546 L63.655884,54.0336546 C62.6501133,53.2112544 61.3685125,52.8064544 59.8161273,52.8064544 C58.5563911,52.8064544 57.432888,53.1120544 56.4380496,53.7312545 C56.4380496,53.7312545 56.1512872,53.8968546 55.7509972,54.2240546 L55.7509972,49.1264537 C55.7509972,48.9256536 55.6778349,48.7488536 55.5197372,48.5904536 C55.3675261,48.4352535 55.1850409,48.3600535 54.9764865,48.3600535 L54.429872,48.3600535 C53.9194181,48.3600535 53.6578841,48.6144536 53.6578841,49.1264537 L53.6578841,66.0800569 C53.6578841,66.589657 53.9194181,66.8440571 54.429872,66.8440571 L54.9764865,66.8440571 C55.1850409,66.8440571 55.3675261,66.7664571 55.5197372,66.610457 C55.6778349,66.456057 55.7509972,66.281657 55.7509972,66.0800569 L55.7509972,59.1848556 C55.7509972,57.8928554 56.1058761,56.8424552 56.8240435,56.036055 C57.5422109,55.2264548 58.5429359,54.8192548 59.8161273,54.8192548 C60.8866508,54.8192548 61.7343238,55.0976548 62.3566234,55.6552549 C62.9772411,56.207255 63.2841861,56.9848552 63.2841861,57.9816554 L63.2841861,66.0800569 C63.2841861,66.589657 63.5347879,66.8440571 64.0334685,66.8440571 L64.548968,66.8440571 C64.7600453,66.8440571 64.9383258,66.7664571 65.0922188,66.610457 C65.2477937,66.456057 65.3243197,66.281657 65.3243197,66.0800569 L65.3243197,57.7616553 C65.3243197,56.113655 64.7600453,54.8560548 63.6331785,54.0040546 M102.081791,48.3612535 C102.603177,48.3612535 102.857143,48.6044536 102.857143,49.0980537 L102.857143,66.0812569 C102.857143,66.587657 102.603177,66.8428571 102.081791,66.8428571 L101.53854,66.8428571 C101.023041,66.8428571 100.76403,66.587657 100.76403,66.0812569 L100.76403,65.2900568 C99.5799786,66.526057 98.0057288,67.1428571 96.0395984,67.1428571 C93.9372349,67.1428571 92.2477756,66.389257 90.9653338,64.8804567 C89.9200387,63.5884565 89.3936069,61.9620561 89.3936069,60.0004558 C89.3936069,57.9476554 89.9629269,56.258855 91.1091355,54.9300548 C92.3318701,53.4956545 94.0053515,52.7748544 96.123693,52.7748544 C98.0200249,52.7748544 99.5606369,53.3860545 100.76403,54.6028547 L100.76403,49.0980537 C100.76403,48.6044536 101.023041,48.3612535 101.53854,48.3612535 L102.081791,48.3612535 Z M89.1044058,53.2098944 C89.5871084,53.2098944 89.8175275,53.4586945 89.8175275,53.9490946 L89.8175275,54.5762947 C89.8175275,54.5762947 89.8427558,54.8202948 89.6678392,54.9890948 C89.471058,55.1762948 89.2229791,55.1762948 89.1044058,55.1762948 C87.7378695,55.1762948 86.6841649,55.811495 85.9777707,57.0874952 C85.3664034,58.1754954 85.065345,59.6202957 85.065345,61.418696 L85.065345,66.1058969 C85.065345,66.293097 84.9862961,66.457097 84.8307212,66.609097 C84.6818739,66.7674971 84.5153667,66.8426971 84.3211083,66.8426971 L83.8653159,66.8426971 C83.3657943,66.8426971 83.1185563,66.604297 83.1185563,66.1058969 L83.1185563,54.2466946 C83.1185563,54.0642946 83.1942414,53.8954946 83.3464525,53.7314945 C83.4986637,53.5714945 83.6702165,53.4850945 83.8653159,53.4850945 L84.3211083,53.4850945 C84.5153667,53.4850945 84.6818739,53.5714945 84.8307212,53.7314945 C84.9862961,53.8954946 85.065345,54.0642946 85.065345,54.2466946 L85.065345,54.9058948 L85.26549,54.7154947 C86.3158308,53.7130945 87.5940678,53.2098944 89.1044058,53.2098944 Z M96.0395984,54.7932548 C94.5494432,54.7932548 93.3914613,55.3204549 92.5690167,56.3764551 C91.841599,57.3204552 91.4757877,58.5292555 91.4757877,60.0004558 C91.4757877,61.453256 91.8357123,62.6484563 92.5429474,63.5700565 C92.6001317,63.6428565 92.6278829,63.6900565 92.6648845,63.7252565 C93.4705102,64.7092567 94.5889676,65.1268568 96.0395984,65.1268568 C97.5120938,65.1268568 98.6877355,64.6076567 99.5606369,63.5700565 C100.369626,62.6260563 100.76403,61.436456 100.76403,60.0004558 C100.76403,58.4540555 100.391491,57.2212552 99.6480952,56.290855 C98.8315372,55.2940549 97.6222577,54.7932548 96.0395984,54.7932548 Z M94.1272886,44.7065328 C95.214631,43.4065326 97.2152401,43.1897325 98.5901859,44.2297327 C99.9626088,45.2721329 100.187141,47.1721333 99.0913893,48.4769335 L99.1056854,48.4505335 C98.018343,49.7473338 93.3897795,49.9913338 92.4395111,51.9689342 C92.4823994,51.8753342 92.58079,46.3625331 94.1331752,44.6873328 Z M77.098985,63.7489365 C76.2454254,64.6849367 75.0958531,65.1561368 73.6452222,65.1561368 C72.1945914,65.1561368 71.0879072,64.7785367 70.2864863,63.8297365 C70.2250973,63.7785365 70.1544578,63.6657365 70.1174562,63.6289365 C69.4472228,62.7465363 69.0872981,61.5993361 69.0872981,60.1657358 C69.0872981,58.7457355 69.4699283,57.5745353 70.2368705,56.6449351 C71.0559513,55.6481349 72.1945914,55.1489348 73.6452222,55.1489348 C75.2337681,55.1489348 76.4287515,55.6209349 77.2284906,56.5665351 C77.9945919,57.4193353 78.3755401,58.6193355 78.3755401,60.1657358 C78.3755401,61.6217361 77.9525446,62.8169363 77.098985,63.7489365 M79.6907788,53.2089344 L79.1492099,53.2089344 C78.9305641,53.2089344 78.7556475,53.2865345 78.6000726,53.4449345 C78.4512252,53.5977345 78.3755401,53.7769346 78.3755401,53.9753346 L78.3755401,54.9297348 C77.2091489,53.7497346 75.6592865,53.1577344 73.7267939,53.1577344 C71.6866604,53.1577344 70.028316,53.8489346 68.7483971,55.2297348 C67.5744373,56.5025351 66.9967078,58.1457354 66.9967078,60.1657358 C66.9967078,62.1841362 67.5626641,63.8193365 68.6870081,65.0729367 C69.890401,66.416137 71.5411768,67.0889371 73.6452222,67.0889371 C75.6374219,67.0889371 77.2091489,66.496937 78.3755401,65.3169368 L78.3755401,66.1049369 C78.3755401,66.603337 78.6311876,66.8417371 79.1492099,66.8417371 L79.6907788,66.8417371 C80.2062783,66.8417371 80.4602438,66.603337 80.4602438,66.1049369 L80.4602438,53.9753346 C80.4602438,53.4689345 80.2062783,53.2089344 79.6907788,53.2089344" id="Orchard" fill="#FFFFFF"></path>
            </g>
        </g>
    </g>
</svg>